<?xml version="1.0" encoding="UTF-8"?>
<svg width="512" height="512" viewBox="0 0 512 512" fill="none" xmlns="http://www.w3.org/2000/svg">
  <rect width="512" height="512" rx="128" fill="url(#gradient)" />
  <path d="M156 256C156 200.772 200.772 156 256 156C311.228 156 356 200.772 356 256C356 311.228 311.228 356 256 356C200.772 356 156 311.228 156 256Z" fill="white" fill-opacity="0.1"/>
  <path d="M206 236C206 213.909 223.909 196 246 196H266C288.091 196 306 213.909 306 236V276C306 298.091 288.091 316 266 316H246C223.909 316 206 298.091 206 276V236Z" fill="white"/>
  <path d="M246 246H266V266H246V246Z" fill="url(#gradient)"/>
  <defs>
    <linearGradient id="gradient" x1="0" y1="0" x2="512" y2="512" gradientUnits="userSpaceOnUse">
      <stop offset="0%" stop-color="#5C67F2"/>
      <stop offset="50%" stop-color="#7C3AED"/>
      <stop offset="100%" stop-color="#2563EB"/>
    </linearGradient>
  </defs>
</svg> 